<?xml version="1.0" encoding="UTF-8" standalone="no"?>
<!-- Generator: Adobe Illustrator 16.0.0, SVG Export Plug-In . SVG Version: 6.00 Build 0)  -->

<svg
   version="1.1"
   id="Layer_1"
   x="0px"
   y="0px"
   width="69.811996"
   height="87.134003"
   viewBox="6.928 373.78 69.811996 87.134002"
   enable-background="new 6.928 373.78 585.422 94.596"
   xml:space="preserve"
   sodipodi:docname="sk_logo.svg"
   inkscape:version="1.3.2 (091e20e, 2023-11-25, custom)"
   xmlns:inkscape="http://www.inkscape.org/namespaces/inkscape"
   xmlns:sodipodi="http://sodipodi.sourceforge.net/DTD/sodipodi-0.dtd"
   xmlns="http://www.w3.org/2000/svg"
   xmlns:svg="http://www.w3.org/2000/svg"><defs
   id="defs54" /><sodipodi:namedview
   id="namedview54"
   pagecolor="#ffffff"
   bordercolor="#000000"
   borderopacity="0.25"
   inkscape:showpageshadow="2"
   inkscape:pageopacity="0.0"
   inkscape:pagecheckerboard="0"
   inkscape:deskcolor="#d1d1d1"
   inkscape:zoom="2.3965618"
   inkscape:cx="292.711"
   inkscape:cy="40.683282"
   inkscape:window-width="1920"
   inkscape:window-height="1017"
   inkscape:window-x="-8"
   inkscape:window-y="-8"
   inkscape:window-maximized="1"
   inkscape:current-layer="Layer_1" />
<g
   id="g54"
   transform="translate(-0.001,-6.662)">
	<path
   fill="#ed1c24"
   d="M 41.835,467.576 C 27.445,460.648 6.929,447.057 6.929,419.879 c 0,-26.913 1.331,-39.437 1.331,-39.437 h 67.149 c 0,0 1.332,12.257 1.332,39.437 -0.266,27.18 -20.784,40.769 -34.906,47.697"
   id="path1" />
	<path
   fill="#ffffff"
   d="m 44.766,412.951 c 3.997,0 11.458,0.267 18.118,-2.132 0,0 -0.266,2.397 -0.266,5.329 0,2.932 0.266,5.328 0.266,5.328 -6.128,-2.131 -13.854,-2.131 -18.118,-2.131 v 14.922 h -6.129 v -14.922 c -4.264,0 -11.99,0 -18.119,2.131 0,0 0.267,-2.396 0.267,-5.328 0,-2.932 -0.267,-5.329 -0.267,-5.329 6.661,2.132 14.389,2.132 18.119,2.132 v -9.593 c -3.465,0 -8.526,0.267 -14.39,2.132 0,0 0.268,-2.398 0.268,-5.329 0,-2.933 -0.268,-5.33 -0.268,-5.33 5.862,1.865 10.925,2.131 14.39,2.131 -0.268,-5.862 -1.865,-13.323 -1.865,-13.323 0,0 3.464,0.267 5.063,0.267 1.332,0 5.063,-0.267 5.063,-0.267 0,0 -1.865,7.461 -1.865,13.323 3.464,0 8.526,-0.266 14.389,-2.131 0,0 -0.267,2.397 -0.267,5.33 0,2.931 0.267,5.329 0.267,5.329 -6.128,-1.865 -11.19,-2.132 -14.654,-2.132 z"
   id="path2" />
	<path
   fill="#0055a1"
   d="m 41.835,467.576 c 9.061,-4.265 20.519,-11.458 27.979,-22.916 -1.865,-3.197 -4.797,-6.928 -8.794,-6.928 -5.861,0 -7.993,4.796 -7.993,4.796 0,0 -3.997,-9.858 -11.191,-9.858 -7.194,0 -11.19,10.125 -11.19,10.125 0,0 -2.132,-4.796 -7.994,-4.796 -3.997,0 -6.929,3.464 -8.794,6.928 7.193,11.191 18.917,18.386 27.977,22.649"
   id="path3" />
	
	
	
	
	
	
	
	
	
	
	
	
	
	
	
	
	
	
	
	
	
	
	
	
	
	
	
	
	
	
	
	
	
	
	
	
	
	
	
	
	
	
	
	
	
	
	
	
	
	
	
	
	
</g>
</svg>
