<svg xmlns="http://www.w3.org/2000/svg" viewBox="0 0 40 41">
  <style>
    path { fill: #0f0f10; }
    @media (prefers-color-scheme: dark) {
      path { fill: #e5e5e5; }
    }
  </style>
  <path d="M6.58 11.3 16.69 5.05a5.9 5.9 0 0 1 6.62.01l14.68 9.07V9.26L25.52 1.55A11.8 11.8 0 0 0 20 0c-1.97 0-3.88.54-5.53 1.56L4.37 7.81A9.3 9.3 0 0 0 0 15.61a9.3 9.3 0 0 0 4.37 7.8l3.26 2.02-.01.01 11.15 6.9c.14.09.27.16.39.2.68.26 1.42.19 2.03-.19l9.59-5.93.1-.07 2.07-1.28-2.82-1.72-1.1-.69-9.02 5.56-.41-.24-13.01-8.05a5.57 5.57 0 0 1-2.41-4.31c0-1.79.88-3.36 2.41-4.3Z" />
  <path d="M33.34 29.25 23.24 35.5a5.9 5.9 0 0 1-6.63-.01L1.94 26.43v4.86l12.47 7.71a11.8 11.8 0 0 0 5.52 1.55c1.97 0 3.88-.54 5.53-1.56l10.1-6.25a9.3 9.3 0 0 0 4.37-7.8 9.3 9.3 0 0 0-4.37-7.8l-3.26-2.02.01-.01-11.15-6.9a1.6 1.6 0 0 0-.39-.2 1.64 1.64 0 0 0-2.03.19l-9.59 5.93-.1.07-2.07 1.28 2.82 1.72 1.1.69 9.02-5.56.41.24 13.01 8.05a5.57 5.57 0 0 1 2.41 4.31c0 1.79-.88 3.36-2.41 4.3Z" />
</svg>
