<svg width="573" height="151" viewBox="0 0 573 151" fill="none" xmlns="http://www.w3.org/2000/svg">
<path d="M230.377 123.022C212.105 123.022 195.46 115.062 189.49 98.7798L200.888 89.9149C203.963 99.8653 213.552 109.816 230.92 109.816C241.232 109.816 248.107 105.835 248.107 98.0561C248.107 90.0958 240.147 87.563 229.834 85.2111L218.256 82.4974C205.773 79.6028 192.204 73.6325 192.204 57.5311C192.204 41.6105 204.506 31.8411 223.502 31.8411C241.956 31.8411 254.801 41.6105 259.685 53.1891L247.745 62.054C243.403 51.7418 235.081 45.2288 222.598 45.2288C213.552 45.2288 207.039 49.209 207.039 56.6265C207.039 64.4059 212.828 67.1196 224.769 70.0142L235.985 72.9089C255.705 77.6127 262.218 85.7539 262.218 97.8752C262.218 115.243 247.383 123.022 230.377 123.022Z" fill="white"/>
<path d="M304.209 123.203C289.917 123.203 279.785 113.796 279.785 98.7798V45.9525H265.674V33.6503H279.785V22.4335L295.525 10.8549V33.6503H324.291V45.9525H295.525V94.076C295.525 105.293 300.772 108.006 307.646 108.006C315.426 108.006 320.853 101.494 323.205 96.066L328.452 111.625C324.652 117.595 316.33 123.203 304.209 123.203Z" fill="white"/>
<path d="M371.447 123.022C346.662 123.022 329.475 105.293 329.475 77.4318C329.475 49.7517 346.481 31.8411 370.543 31.8411C395.328 31.8411 410.344 48.3044 410.344 73.9944C410.344 76.7081 409.982 79.4218 409.62 81.0501H344.672C345.576 99.5034 355.889 109.997 371.447 109.997C388.996 109.997 396.052 100.408 399.489 92.8096L409.078 103.664C402.565 114.158 390.443 123.022 371.447 123.022ZM370.543 45.0479C356.431 45.0479 347.024 53.37 345.034 69.6524H396.233C394.604 53.5509 385.197 45.0479 370.543 45.0479Z" fill="white"/>
<path d="M442.765 121.213H427.025V0H442.765V121.213Z" fill="white"/>
<path d="M478.545 121.213H462.805V0H478.545V121.213Z" fill="white"/>
<path d="M516.677 123.022C501.842 123.022 493.52 114.519 493.52 102.941C493.52 91.1813 502.385 83.7638 514.868 78.1554L546.528 64.044C545.985 53.7319 541.101 46.1334 527.351 46.1334C514.868 46.1334 506.546 53.37 502.023 62.9585L491.349 51.9227C496.595 42.8769 509.621 31.8411 529.16 31.8411C550.689 31.8411 562.268 44.6861 562.268 65.4914V101.494C562.268 105.655 563.896 106.921 567.152 106.921H572.761V121.213H562.63C553.584 121.213 547.071 116.871 547.071 104.569V98.418C544.176 109.997 534.769 123.022 516.677 123.022ZM509.44 100.408C509.44 106.378 513.601 109.997 521.743 109.997C536.578 109.997 547.071 100.227 547.071 87.563V75.4417L521.562 87.3821C513.24 91.3622 509.44 94.9806 509.44 100.408Z" fill="white"/>
<path d="M23.54 44.9308L59.6539 22.3206C63.1914 20.0983 67.2755 18.9388 71.4882 18.9388C75.701 18.9388 79.7851 20.0983 83.3225 22.3206L135.773 55.1408V37.5551L91.2014 9.63058C85.3164 5.95884 78.4988 3.99414 71.4882 3.99414C64.4777 3.99414 57.6279 5.92663 51.7429 9.63058L15.629 32.2408C5.85284 38.3925 0 48.9568 0 60.5196C0 72.0823 5.85284 82.6466 15.629 88.7662L27.2704 96.0452L67.1147 121.039C67.6292 121.361 68.0794 121.586 68.4975 121.747C70.9415 122.681 73.5785 122.424 75.7653 121.071L110.046 99.6204C110.046 99.6204 110.303 99.4593 110.4 99.3627L117.796 94.7247L107.731 88.4763L103.775 85.9963L71.5526 106.126L70.0733 105.257L23.5721 76.1084C18.1052 72.6621 14.9537 66.9934 14.9537 60.5196C14.9537 54.0457 18.1052 48.3771 23.5721 44.9308H23.54Z" fill="white"/>
<path d="M119.179 109.863L83.0653 132.473C79.5279 134.695 75.4437 135.855 71.231 135.855C67.0182 135.855 62.9341 134.695 59.3967 132.473L6.91406 99.6528V117.239L51.4857 145.131C57.3707 148.803 64.1883 150.767 71.1988 150.767C78.2094 150.767 85.0591 148.835 90.9441 145.131L127.058 122.521C136.834 116.401 142.687 105.837 142.687 94.2741C142.687 82.7113 136.834 72.147 127.058 66.0275L115.417 58.7484L75.5724 33.7548C75.0578 33.4327 74.6076 33.2073 74.1895 33.0462C71.7455 32.1122 69.1085 32.3699 66.9217 33.7226L32.6408 55.1733C32.6408 55.1733 32.3836 55.3343 32.2871 55.4309L24.8906 60.0689L34.9562 66.3173L38.9117 68.7974L71.1345 48.6672L72.6138 49.5368L119.115 78.6853C124.582 82.1316 127.733 87.8002 127.733 94.2741C127.733 100.748 124.582 106.417 119.115 109.863H119.179Z" fill="white"/>
</svg>
