<svg width="143" height="147" viewBox="0 0 143 147" fill="none" xmlns="http://www.w3.org/2000/svg">
<path d="M23.54 40.9367L59.6539 18.3265C63.1914 16.1041 67.2755 14.9446 71.4882 14.9446C75.701 14.9446 79.7851 16.1041 83.3225 18.3265L135.773 51.1467V33.561L91.2014 5.63644C85.3164 1.9647 78.4988 0 71.4882 0C64.4777 0 57.6279 1.93249 51.7429 5.63644L15.629 28.2466C5.85284 34.3984 0 44.9627 0 56.5254C0 68.0882 5.85284 78.6525 15.629 84.772L27.2704 92.0511L67.1147 117.045C67.6292 117.367 68.0794 117.592 68.4975 117.753C70.9415 118.687 73.5785 118.43 75.7653 117.077L110.046 95.6262C110.046 95.6262 110.303 95.4652 110.4 95.3686L117.796 90.7306L107.731 84.4822L103.775 82.0021L71.5526 102.132L70.0733 101.263L23.5721 72.1142C18.1052 68.6679 14.9537 62.9993 14.9537 56.5254C14.9537 50.0516 18.1052 44.3829 23.5721 40.9367H23.54Z" fill="white"/>
<path d="M119.179 105.869L83.0653 128.479C79.5279 130.701 75.4437 131.861 71.231 131.861C67.0182 131.861 62.9341 130.701 59.3967 128.479L6.91406 95.6587V113.244L51.4857 141.137C57.3707 144.808 64.1883 146.773 71.1988 146.773C78.2094 146.773 85.0591 144.841 90.9441 141.137L127.058 118.527C136.834 112.407 142.687 101.843 142.687 90.2799C142.687 78.7172 136.834 68.1529 127.058 62.0333L115.417 54.7543L75.5724 29.7607C75.0578 29.4386 74.6076 29.2131 74.1895 29.0521C71.7455 28.1181 69.1085 28.3757 66.9217 29.7285L32.6408 51.1791C32.6408 51.1791 32.3836 51.3402 32.2871 51.4368L24.8906 56.0748L34.9562 62.3232L38.9117 64.8032L71.1345 44.6731L72.6138 45.5427L119.115 74.6911C124.582 78.1374 127.733 83.8061 127.733 90.2799C127.733 96.7538 124.582 102.422 119.115 105.869H119.179Z" fill="white"/>
</svg>
