<svg width="80" height="32" viewBox="0 0 80 32" fill="none" xmlns="http://www.w3.org/2000/svg">
<rect width="12" height="32" fill="#CCE5FF"/>
<path d="M24.7188 18.9844V27H20.0312V4.25H28.9062C30.6146 4.25 32.1146 4.5625 33.4062 5.1875C34.7083 5.8125 35.7083 6.70312 36.4062 7.85938C37.1042 9.00521 37.4531 10.3125 37.4531 11.7812C37.4531 14.0104 36.6875 15.7708 35.1562 17.0625C33.6354 18.3438 31.526 18.9844 28.8281 18.9844H24.7188ZM24.7188 15.1875H28.9062C30.1458 15.1875 31.0885 14.8958 31.7344 14.3125C32.3906 13.7292 32.7188 12.8958 32.7188 11.8125C32.7188 10.6979 32.3906 9.79688 31.7344 9.10938C31.0781 8.42188 30.1719 8.06771 29.0156 8.04688H24.7188V15.1875ZM49.4294 18.6719H45.695V27H41.0075V4.25H49.4606C52.1481 4.25 54.221 4.84896 55.6794 6.04688C57.1377 7.24479 57.8669 8.9375 57.8669 11.125C57.8669 12.6771 57.5283 13.974 56.8512 15.0156C56.1846 16.0469 55.169 16.8698 53.8044 17.4844L58.7262 26.7812V27H53.695L49.4294 18.6719ZM45.695 14.875H49.4762C50.6533 14.875 51.5648 14.5781 52.2106 13.9844C52.8565 13.3802 53.1794 12.5521 53.1794 11.5C53.1794 10.4271 52.8721 9.58333 52.2575 8.96875C51.6533 8.35417 50.721 8.04688 49.4606 8.04688H45.695V14.875ZM73.5619 21.0312C73.5619 20.1458 73.2494 19.4688 72.6244 19C71.9994 18.5208 70.8744 18.0208 69.2494 17.5C67.6244 16.9688 66.3379 16.4479 65.39 15.9375C62.8067 14.5417 61.515 12.6615 61.515 10.2969C61.515 9.06771 61.8587 7.97396 62.5462 7.01562C63.2442 6.04688 64.239 5.29167 65.5306 4.75C66.8327 4.20833 68.291 3.9375 69.9056 3.9375C71.5306 3.9375 72.9785 4.23438 74.2494 4.82812C75.5202 5.41146 76.5046 6.23958 77.2025 7.3125C77.9108 8.38542 78.265 9.60417 78.265 10.9688H73.5775C73.5775 9.92708 73.2494 9.11979 72.5931 8.54688C71.9369 7.96354 71.015 7.67188 69.8275 7.67188C68.6817 7.67188 67.791 7.91667 67.1556 8.40625C66.5202 8.88542 66.2025 9.52083 66.2025 10.3125C66.2025 11.0521 66.5723 11.6719 67.3119 12.1719C68.0619 12.6719 69.1608 13.1406 70.6087 13.5781C73.2754 14.3802 75.2181 15.375 76.4369 16.5625C77.6556 17.75 78.265 19.2292 78.265 21C78.265 22.9688 77.5202 24.5156 76.0306 25.6406C74.541 26.7552 72.5358 27.3125 70.015 27.3125C68.265 27.3125 66.6712 26.9948 65.2337 26.3594C63.7962 25.7135 62.6973 24.8333 61.9369 23.7188C61.1869 22.6042 60.8119 21.3125 60.8119 19.8438H65.515C65.515 22.3542 67.015 23.6094 70.015 23.6094C71.1296 23.6094 71.9994 23.3854 72.6244 22.9375C73.2494 22.4792 73.5619 21.8438 73.5619 21.0312Z" fill="#003366"/>
</svg>
